<svg
  width="520"
  height="320"
  viewBox="0 0 520 320"
  fill="none"
  xmlns="http://www.w3.org/2000/svg"
>
  <path
    d="M40 70L150 50L250 110L370 80L470 140"
    stroke="#c7d2fe"
    stroke-width="2"
  />
  <path
    d="M70 210L160 160L260 200L350 170L440 230"
    stroke="#c7d2fe"
    stroke-width="2"
  />
  <path
    d="M110 120L210 90L310 150L410 120"
    stroke="#e0e7ff"
    stroke-width="2"
  />
  <path
    d="M90 260L190 230L290 270L390 240"
    stroke="#e0e7ff"
    stroke-width="2"
  />
  <circle cx="40" cy="70" r="6" fill="#2563eb" />
  <circle cx="150" cy="50" r="6" fill="#2563eb" />
  <circle cx="250" cy="110" r="6" fill="#7c3aed" />
  <circle cx="370" cy="80" r="6" fill="#2563eb" />
  <circle cx="470" cy="140" r="6" fill="#7c3aed" />
  <circle cx="70" cy="210" r="6" fill="#2563eb" />
  <circle cx="160" cy="160" r="6" fill="#7c3aed" />
  <circle cx="260" cy="200" r="6" fill="#2563eb" />
  <circle cx="350" cy="170" r="6" fill="#7c3aed" />
  <circle cx="440" cy="230" r="6" fill="#2563eb" />
  <circle cx="110" cy="120" r="5" fill="#94a3b8" />
  <circle cx="210" cy="90" r="5" fill="#94a3b8" />
  <circle cx="310" cy="150" r="5" fill="#94a3b8" />
  <circle cx="410" cy="120" r="5" fill="#94a3b8" />
  <circle cx="90" cy="260" r="5" fill="#94a3b8" />
  <circle cx="190" cy="230" r="5" fill="#94a3b8" />
  <circle cx="290" cy="270" r="5" fill="#94a3b8" />
  <circle cx="390" cy="240" r="5" fill="#94a3b8" />
</svg>
