<svg
  width="520"
  height="320"
  viewBox="0 0 520 320"
  fill="none"
  xmlns="http://www.w3.org/2000/svg"
>
  <rect x="24" y="24" width="472" height="272" rx="20" fill="#f8fafc" />
  <rect x="24" y="24" width="472" height="56" rx="20" fill="#eef2ff" />
  <text
    x="48"
    y="58"
    font-family="Inter, Arial, sans-serif"
    font-size="16"
    fill="#1e293b"
    font-weight="600"
  >
    DeepTCR pipeline snapshot
  </text>

  <rect x="60" y="110" width="90" height="70" rx="14" fill="#ffffff" stroke="#cbd5f0" />
  <rect x="210" y="110" width="90" height="70" rx="14" fill="#ffffff" stroke="#cbd5f0" />
  <rect x="360" y="110" width="90" height="70" rx="14" fill="#ffffff" stroke="#cbd5f0" />
  <rect x="210" y="210" width="90" height="70" rx="14" fill="#ffffff" stroke="#cbd5f0" />

  <circle cx="105" cy="145" r="14" fill="#2563eb" />
  <circle cx="255" cy="145" r="14" fill="#7c3aed" />
  <circle cx="405" cy="145" r="14" fill="#14b8a6" />
  <circle cx="255" cy="245" r="14" fill="#2563eb" />

  <path d="M150 145H210" stroke="#94a3b8" stroke-width="2" />
  <path d="M300 145H360" stroke="#94a3b8" stroke-width="2" />
  <path d="M255 180V210" stroke="#94a3b8" stroke-width="2" />

  <text x="70" y="170" font-family="Inter, Arial, sans-serif" font-size="12" fill="#475569">
    Data
  </text>
  <text x="210" y="170" font-family="Inter, Arial, sans-serif" font-size="12" fill="#475569">
    Model
  </text>
  <text x="360" y="170" font-family="Inter, Arial, sans-serif" font-size="12" fill="#475569">
    Validation
  </text>
  <text x="210" y="270" font-family="Inter, Arial, sans-serif" font-size="12" fill="#475569">
    Clinical insight
  </text>

  <rect x="70" y="200" width="120" height="8" rx="4" fill="#dbe2ff" />
  <rect x="70" y="220" width="90" height="8" rx="4" fill="#e2e8f0" />
  <rect x="70" y="240" width="110" height="8" rx="4" fill="#dbe2ff" />

  <rect x="340" y="210" width="120" height="8" rx="4" fill="#dbe2ff" />
  <rect x="340" y="230" width="90" height="8" rx="4" fill="#e2e8f0" />
  <rect x="340" y="250" width="110" height="8" rx="4" fill="#dbe2ff" />
</svg>
